<?xml version="1.0" encoding="UTF-8" standalone="no"?>
<svg
   width="278.40042pt"
   height="307.42068pt"
   viewBox="0 0 278.40042 307.42068"
   version="1.1"
   id="svg4690"
   xmlns="http://www.w3.org/2000/svg"
   xmlns:svg="http://www.w3.org/2000/svg">
  <defs
     id="defs325">
    <g
       id="compositing-group-0"
       transform="translate(363.64,311.24)">
      <rect
         x="-363.64001"
         y="-311.23999"
         width="881.28003"
         height="1140.48"
         fill="#000000"
         fill-opacity="0"
         id="rect268" />
      <clipPath
         id="clip-0">
        <path
           clip-rule="nonzero"
           d="M 0.523438,0.363281 H 160.00391 V 42.480469 H 0.523438 Z m 0,0"
           id="path268" />
      </clipPath>
      <g
         clip-path="url(#clip-0)"
         id="g269">
        <rect
           x="-363.64001"
           y="-311.23999"
           width="881.28003"
           height="1140.48"
           fill="#ffffff"
           fill-opacity="1"
           id="rect269" />
      </g>
    </g>
    <g
       id="compositing-group-5"
       transform="translate(357.64,304.24)">
      <rect
         x="-357.64001"
         y="-304.23999"
         width="881.28003"
         height="1140.48"
         fill="#000000"
         fill-opacity="0"
         id="rect274" />
      <clipPath
         id="clip-2">
        <path
           clip-rule="nonzero"
           d="M 0.191406,0.671875 H 166.14844 V 49.269531 H 0.191406 Z m 0,0"
           id="path274" />
      </clipPath>
      <g
         clip-path="url(#clip-2)"
         id="g275">
        <rect
           x="-357.64001"
           y="-304.23999"
           width="881.28003"
           height="1140.48"
           fill="#ffffff"
           fill-opacity="1"
           id="rect275" />
      </g>
    </g>
    <g
       id="compositing-group-10"
       transform="translate(510.64,707.24)">
      <rect
         x="-510.64001"
         y="-707.23999"
         width="881.28003"
         height="1140.48"
         fill="#000000"
         fill-opacity="0"
         id="rect280" />
      <clipPath
         id="clip-4">
        <path
           clip-rule="nonzero"
           d="M 0.574219,0.0117188 H 40.175781 V 39.609375 H 0.574219 Z m 0,0"
           id="path280" />
      </clipPath>
      <g
         clip-path="url(#clip-4)"
         id="g281">
        <rect
           x="-510.64001"
           y="-707.23999"
           width="881.28003"
           height="1140.48"
           fill="#ffffff"
           fill-opacity="1"
           id="rect281" />
      </g>
    </g>
    <g
       id="compositing-group-15"
       transform="translate(512.64,708.24)">
      <rect
         x="-512.64001"
         y="-708.23999"
         width="881.28003"
         height="1140.48"
         fill="#000000"
         fill-opacity="0"
         id="rect288" />
      <clipPath
         id="clip-7">
        <path
           clip-rule="nonzero"
           d="m 0.605469,0.511719 h 34 v 27.359375 h -34 z m 0,0"
           id="path288" />
      </clipPath>
      <g
         clip-path="url(#clip-7)"
         id="g289">
        <rect
           x="-512.64001"
           y="-708.23999"
           width="881.28003"
           height="1140.48"
           fill="#ffffff"
           fill-opacity="1"
           id="rect289" />
      </g>
    </g>
    <g
       id="compositing-group-20"
       transform="translate(512.64,708.24)">
      <rect
         x="-512.64001"
         y="-708.23999"
         width="881.28003"
         height="1140.48"
         fill="#000000"
         fill-opacity="0"
         id="rect295" />
      <clipPath
         id="clip-8">
        <path
           clip-rule="nonzero"
           d="m 0.605469,4.472656 h 34 v 30.039063 h -34 z m 0,0"
           id="path295" />
      </clipPath>
      <g
         clip-path="url(#clip-8)"
         id="g296">
        <rect
           x="-512.64001"
           y="-708.23999"
           width="881.28003"
           height="1140.48"
           fill="#ffffff"
           fill-opacity="1"
           id="rect296" />
      </g>
    </g>
    <g
       id="compositing-group-25"
       transform="translate(582.64,706.24)">
      <rect
         x="-582.64001"
         y="-706.23999"
         width="881.28003"
         height="1140.48"
         fill="#000000"
         fill-opacity="0"
         id="rect303" />
      <clipPath
         id="clip-10">
        <path
           clip-rule="nonzero"
           d="M 0.929688,0.972656 H 40.53125 V 40.570312 H 0.929688 Z m 0,0"
           id="path303" />
      </clipPath>
      <g
         clip-path="url(#clip-10)"
         id="g304">
        <rect
           x="-582.64001"
           y="-706.23999"
           width="881.28003"
           height="1140.48"
           fill="#ffffff"
           fill-opacity="1"
           id="rect304" />
      </g>
    </g>
    <g
       id="compositing-group-30"
       transform="translate(584.64,708.24)">
      <rect
         x="-584.64001"
         y="-708.23999"
         width="881.28003"
         height="1140.48"
         fill="#000000"
         fill-opacity="0"
         id="rect311" />
      <clipPath
         id="clip-13">
        <path
           clip-rule="nonzero"
           d="m 0.960938,0.472656 h 34 v 27.359375 h -34 z m 0,0"
           id="path311" />
      </clipPath>
      <g
         clip-path="url(#clip-13)"
         id="g312">
        <rect
           x="-584.64001"
           y="-708.23999"
           width="881.28003"
           height="1140.48"
           fill="#ffffff"
           fill-opacity="1"
           id="rect312" />
      </g>
    </g>
    <g
       id="compositing-group-35"
       transform="translate(584.64,708.24)">
      <rect
         x="-584.64001"
         y="-708.23999"
         width="881.28003"
         height="1140.48"
         fill="#000000"
         fill-opacity="0"
         id="rect318" />
      <clipPath
         id="clip-14">
        <path
           clip-rule="nonzero"
           d="m 0.960938,4.433594 h 34 v 30.039062 h -34 z m 0,0"
           id="path318" />
      </clipPath>
      <g
         clip-path="url(#clip-14)"
         id="g319">
        <rect
           x="-584.64001"
           y="-708.23999"
           width="881.28003"
           height="1140.48"
           fill="#ffffff"
           fill-opacity="1"
           id="rect319" />
      </g>
    </g>
  </defs>
  <path
     fill-rule="nonzero"
     fill="#121313"
     fill-opacity="1"
     d="m 140.59792,71.671647 c 7.5809,0.0957 13.6791,6.45691 13.6791,14.27695 0,7.84395 -6.0982,14.181293 -13.6791,14.300863 -7.58089,-0.11957 -13.67908,-6.456913 -13.67908,-14.300863 0,-7.82004 6.09819,-14.18129 13.67908,-14.27695 m -14.80306,-1.17181 c -8.29833,8.53747 -8.29833,22.38396 0,30.921433 4.08937,4.20895 9.44622,6.33734 14.80306,6.38517 5.35685,-0.0478 10.71369,-2.17622 14.80307,-6.38517 8.29833,-8.537473 8.29833,-22.383963 0,-30.921433 -1.21964,-1.26747 -3.03713,-3.1328 -4.97421,-5.33293 -0.21523,-0.11958 -0.43046,-0.23915 -0.64569,-0.3348 -0.11958,-0.31089 -0.26306,-0.59787 -0.40655,-0.88484 -0.62177,-0.71744 -1.24355,-1.45879 -1.84141,-2.22405 -0.3348,-0.23914 -0.69352,-0.47828 -1.10007,-0.6696 -0.31089,-0.66961 -0.62178,-1.33921 -0.93266,-2.00882 -2.36754,-3.32411 -4.30461,-6.83954 -4.90248,-10.02017 -0.59786,3.18063 -2.53493,6.69606 -4.90247,10.02017 -0.31088,0.66961 -0.62177,1.33921 -0.93266,2.00882 -0.40655,0.19132 -0.76526,0.43046 -1.10007,0.6696 -0.59786,0.76526 -1.21964,1.50661 -1.84141,2.22405 -0.14349,0.28697 -0.28697,0.57395 -0.40655,0.88484 -0.21523,0.0956 -0.43046,0.21522 -0.64569,0.3348 -1.93707,2.20013 -3.75458,4.06546 -4.97421,5.33293"
     id="path4689"
     style="stroke-width:6.12211" />
  <path
     fill-rule="nonzero"
     fill="#121313"
     fill-opacity="1"
     d="m 215.23504,86.211647 c -6.16994,4.54376 -16.21402,3.96981 -16.21402,3.96981 0,0 3.56325,-6.40908 8.27441,-10.37888 4.68724,-3.99372 15.40093,-4.2807 15.40093,-4.2807 0,0 -1.3153,6.12211 -7.46132,10.68977 m -10.61803,32.834603 c -8.60922,7.17434 -25.82765,5.93079 -25.82765,5.93079 0,0 1.33921,-8.27441 11.26373,-17.64889 9.9245,-9.374483 24.17754,-8.585303 24.17754,-8.585303 0,0 -1.00441,13.105133 -9.61362,20.303403 m -128.038173,0 c -8.60921,-7.19827 -9.61362,-20.303403 -9.61362,-20.303403 0,0 14.25304,-0.78918 24.17755,8.585303 9.924513,9.37448 11.263723,17.64889 11.263723,17.64889 0,0 -17.218433,1.24355 -25.827653,-5.93079 M 58.499487,75.521877 c 0,0 10.71369,0.28698 15.40093,4.2807 4.71115,3.9698 8.27442,10.37888 8.27442,10.37888 0,0 -10.06801,0.57395 -16.21403,-3.96981 -6.16993,-4.56766 -7.46132,-10.68977 -7.46132,-10.68977 m 218.841473,155.683313 -0.0957,-0.43046 c -0.93266,-4.4481 -2.72625,-8.51356 -4.97421,-12.33988 -0.78918,-2.84582 -1.62619,-5.66773 -2.60668,-8.05918 -2.36753,-5.71556 -5.18944,-11.14415 -8.17876,-16.47708 -2.53493,-4.49593 -5.14161,-9.66145 -8.29832,-14.15738 2.63059,-1.9849 4.71115,-3.82632 6.33734,-5.4525 2.46319,-2.51102 3.92198,-4.51984 4.71115,-5.83514 0.1674,-0.28697 0.3348,-0.55003 0.43047,-0.76526 -0.74136,-0.57395 -1.45879,-1.14789 -2.15231,-1.72184 -0.5022,-0.43046 -0.98049,-0.837 -1.4827,-1.26747 -0.1674,-0.1674 -0.35872,-0.31089 -0.55003,-0.47829 -0.35872,-0.3348 -6.0982,-6.21776 -9.68537,-9.9006 -0.0239,-0.0239 -0.0239,-0.0478 -0.0478,-0.0717 -2.51102,-2.94148 -4.25677,-5.33293 -5.1177,-6.57648 0,0 0,-0.0239 -0.0239,-0.0478 -0.0956,-0.14349 -0.19131,-0.26306 -0.26305,-0.38264 -0.14349,-0.19131 -0.23915,-0.35871 -0.31089,-0.45437 0,-0.0239 0,-0.0239 0,-0.0239 0,0 0,0 -0.0239,0 -0.0239,-0.0718 -0.0239,-0.11958 -0.0478,-0.19132 -0.0718,-0.11957 -0.14349,-0.23914 -0.1674,-0.38263 -0.0239,-0.19131 -0.0239,-0.40655 0,-0.59786 v -0.0239 c 0.81308,-3.92197 0.1674,-8.13092 0.14348,-8.17875 -0.0478,-0.40655 0.0478,-0.83701 0.28697,-1.17181 0,0 0.71744,-1.05224 1.3153,-3.10888 0.1674,-0.62178 0.88484,-1.07615 1.53053,-1.10007 0.0717,0 7.12651,-0.21523 11.23981,-3.37194 4.06546,-3.08497 8.94402,-8.72879 9.32665,-14.39652 0.0957,-1.36313 0.11957,-2.75017 0.14348,-4.08938 0.0239,-4.04155 -0.23914,-7.9157 -0.55003,-11.598533 -0.31088,-3.9698 -1.17181,-9.63753 -3.51543,-14.10955 -2.65451,-5.06987 -2.20013,-6.48082 0.95658,-9.49405 1.91316,-1.8175 1.9849,-11.90941 0.11957,-16.14228 -0.59786,-1.33921 -1.21964,-2.29579 -1.88924,-3.01322 -0.0239,-0.0478 -0.0717,-0.0717 -0.11958,-0.11957 -0.1674,-0.1674 -0.35871,-0.35872 -0.52611,-0.50221 -0.0239,-0.0239 -0.0718,-0.0478 -0.0957,-0.0717 -0.19131,-0.1674 -0.38263,-0.31089 -0.55003,-0.43046 -0.0478,-0.0239 -0.0957,-0.0478 -0.14349,-0.0957 -0.62178,-0.38263 -1.21964,-0.64569 -1.79359,-0.90875 l -1.02832,-0.45437 c -1.91316,-0.8131 -3.70675,-1.69793 -5.38076,-2.65451 -0.26306,-0.14349 -0.52612,-0.28698 -0.78918,-0.43047 -0.57395,-0.33479 -1.10006,-0.69351 -1.67401,-1.05223 -0.35872,-0.21523 -0.71743,-0.45437 -1.07615,-0.66961 -0.83701,-0.57395 -1.62619,-1.17181 -2.36754,-1.76967 -0.0478,-0.0239 -0.0957,-0.0478 -0.11957,-0.0957 -10.30714,0.0478 -41.89818,-25.44501 -47.42243,-27.69297 -3.30019,-1.33921 -7.17434,-0.66961 -10.64194,-0.62178 -3.61109,0.0717 -6.83955,1.36313 -9.47014,4.06546 -2.58276,2.6306 -2.51102,6.28951 -1.45879,9.66146 1.00441,3.27628 3.99372,4.90246 7.22218,5.40467 2.82191,0.43046 8.4179,-0.31089 10.49846,-2.58276 0.0957,-0.0718 1.72185,-1.93708 1.4827,-2.15231 -0.43046,-0.40654 -3.41977,0.47829 -4.08938,0.52612 -5.7873,0.52612 -5.73948,-8.7527 0,-9.27882 5.6199,-0.5022 10.33106,-0.38263 12.31596,6.24168 1.8175,6.05036 -1.96098,11.12024 -6.86345,13.94215 -9.82886,5.6199 -25.75591,2.63059 -29.19959,-9.42231 -1.57836,-5.42859 -1.67402,-11.47896 1.55444,-16.30968 3.18063,-4.71115 9.27882,-8.6570502 14.8509,-9.3027302 6.38516,-0.74135 13.15296,-0.62178 18.9881,2.2001202 2.63059,1.26748 5.2851,2.39146 7.72438,4.04156 2.00881,1.36312 13.94214,11.0724 24.63191,19.29898 -0.40654,-0.6696 -0.78917,-1.36312 -1.1718,-2.00881 -4.13721,-7.00695 -6.86346,-11.64635 -16.30968,-18.46199 C 210.02169,6.2416668 198.27968,2.8697268 185.34194,-1.3136648e-5 175.32177,0.09568686 166.61689,4.4480868 160.39913,11.287627 c -0.0478,0.0717 -0.0717,0.14349 -0.11957,0.19131 -0.16741,0.16741 -0.31089,0.33481 -0.45437,0.47829 -0.74135,0.83701 -1.43488,1.72185 -2.08057,2.60669 -0.14349,0.0956 -0.28697,0.19131 -0.43046,0.26305 -2.51102,3.20455 -4.37635,6.71997 -5.57207,10.52238 -0.55004,1.72184 -0.90875,3.41977 -1.1479,5.06987 0.0239,0.55003 0.0239,1.10007 0.0718,1.6501 -0.19132,1.38704 -0.33481,2.77408 -0.40655,4.18503 0.14349,5.97863 1.74576,10.73761 2.51102,13.0334 0.93267,2.75016 1.96099,4.97421 3.08497,6.91129 1.24355,1.86532 2.6306,3.635 4.18504,5.26118 0.31088,0.52612 0.62177,1.05224 0.93266,1.55444 0.0239,0.0239 0.0239,0.0478 0.0478,0.0718 0.38263,0.40654 0.76526,0.83701 1.14789,1.24355 3.49151,3.80241 6.7678,7.41349 7.86787,14.5161 1.12398,7.17434 -0.47829,14.7074 -4.73507,22.383963 -1.33921,2.43927 -2.89366,4.56766 -4.51983,6.43299 -1.50662,2.43928 -3.34804,4.54375 -6.21778,6.05037 -2.3197,1.24355 -3.99371,2.67842 -6.16993,3.82631 -1.10007,0.57395 -2.31971,0.90876 -3.58718,1.10007 -1.72184,0.6696 -3.1567,1.07615 -4.06546,1.3153 h -0.31088 c -0.88484,-0.23915 -2.31971,-0.6457 -4.06547,-1.3153 -1.24355,-0.19131 -2.46319,-0.52612 -3.56326,-1.10007 -2.17622,-1.14789 -3.85023,-2.58276 -6.16994,-3.82631 -2.86974,-1.50662 -4.71115,-3.61109 -6.21776,-6.05037 -1.62619,-1.86533 -3.18063,-3.99372 -4.51984,-6.43299 -4.25678,-7.676563 -5.85905,-15.209623 -4.73507,-22.383963 1.10007,-7.10261 4.37635,-10.71369 7.86787,-14.5161 0.38263,-0.40654 0.76526,-0.83701 1.14789,-1.24355 0.0239,-0.0239 0.0239,-0.0478 0.0478,-0.0718 0.31088,-0.5022 0.62177,-1.02832 0.93266,-1.55444 1.55444,-1.62618 2.94148,-3.39586 4.18503,-5.26118 1.10007,-1.93708 2.15231,-4.16113 3.08497,-6.91129 0.76526,-2.29579 2.36754,-7.05477 2.51103,-13.0334 -0.0718,-1.41095 -0.21524,-2.79799 -0.40655,-4.18503 0.0478,-0.55003 0.0478,-1.10007 0.0717,-1.6501 -0.23914,-1.6501 -0.59786,-3.34803 -1.14789,-5.06987 -1.19573,-3.80241 -3.06106,-7.31783 -5.57208,-10.52238 -0.14349,-0.0717 -0.28697,-0.1674 -0.43046,-0.26305 -0.6457,-0.88484 -1.33921,-1.76968 -2.08056,-2.60669 -0.14349,-0.14348 -0.28698,-0.31088 -0.45437,-0.47829 -0.0478,-0.0478 -0.0718,-0.11957 -0.11958,-0.19131 C 114.555,4.4480868 105.87404,0.09564686 95.853867,-1.3136648e-5 82.916137,2.8697268 71.174117,6.2416668 60.316937,14.085617 c -9.44622,6.81564 -12.17247,11.45504 -16.30967,18.46199 -0.38264,0.64569 -0.76527,1.33921 -1.17182,2.00881 10.68978,-8.22658 22.62311,-17.93586 24.60801,-19.29898 2.4632,-1.6501 5.1177,-2.77408 7.7483,-4.04156 5.83513,-2.8219002 12.60293,-2.9414702 18.9881,-2.2001202 5.57208,0.64568 11.670273,4.5915802 14.850893,9.3027302 3.22846,4.83072 3.1328,10.88109 1.55445,16.30968 -3.46761,12.0529 -19.370743,15.04221 -29.199593,9.42231 -4.90247,-2.82191 -8.68096,-7.89179 -6.86346,-13.94215 1.9849,-6.62431 6.69606,-6.74388 12.31596,-6.24168 5.73947,0.52612 5.78731,9.80494 0,9.27882 -0.6696,-0.0478 -3.65892,-0.93266 -4.08938,-0.52612 -0.23914,0.21523 1.38704,2.08056 1.45879,2.15231 2.10447,2.27187 7.70046,3.01322 10.52237,2.58276 3.22846,-0.50221 6.217773,-2.12839 7.222173,-5.40467 1.05225,-3.37195 1.12399,-7.03086 -1.45878,-9.66146 -2.630593,-2.70233 -5.882963,-3.99372 -9.494053,-4.06546 -3.44369,-0.0478 -7.31783,-0.71743 -10.61803,0.62178 -5.52425,2.24796 -37.11528,27.7408 -47.42243,27.69297 -0.0239,0.0478 -0.0717,0.0717 -0.11957,0.0957 -0.76526,0.59786 -1.53053,1.19572 -2.36754,1.76967 -0.35871,0.21524 -0.74134,0.45438 -1.10006,0.66961 -0.55003,0.35872 -1.07616,0.71744 -1.6501,1.05223 -0.26306,0.14349 -0.52612,0.28698 -0.78918,0.43047 -1.67401,0.95658 -3.4676,1.84141 -5.38076,2.65451 l -1.02832,0.45437 c -0.57395,0.26306 -1.17181,0.52612 -1.79359,0.90875 -0.0478,0.0478 -0.0957,0.0717 -0.14348,0.0957 -0.19132,0.11957 -0.35872,0.26306 -0.55004,0.43046 -0.0478,0.0239 -0.0717,0.0478 -0.0957,0.0717 -0.1674,0.14349 -0.35872,0.33481 -0.52611,0.50221 -0.0478,0.0478 -0.0957,0.0717 -0.14349,0.11957 -0.6457,0.71743 -1.26747,1.67401 -1.86533,3.01322 -1.86533,4.23287 -1.79359,14.32478 0.11957,16.14228 3.15671,3.01323 3.61109,4.42418 0.95658,9.49405 -2.34362,4.47202 -3.20454,10.13975 -3.51543,14.10955 -0.31089,3.682833 -0.57395,7.556983 -0.55004,11.598533 0,1.33921 0.0478,2.72625 0.14349,4.08938 0.35872,5.66773 5.23728,11.31155 9.30274,14.39652 4.1372,3.15671 11.19198,3.37194 11.26372,3.37194 0.6457,0.0239 1.33921,0.47829 1.53053,1.10007 0.59786,2.05664 1.3153,3.10888 1.3153,3.10888 0.23914,0.3348 0.3348,0.76526 0.28697,1.17181 -0.0239,0.0478 -0.6696,4.25678 0.14349,8.17875 0,0.0239 0,0.0239 0,0.0239 0.0239,0.19131 0.0239,0.40655 0,0.59786 -0.0239,0.14349 -0.0957,0.26306 -0.1674,0.38263 -0.0239,0.0717 -0.0239,0.11957 -0.0718,0.19132 0,0 0,0 0,0.0239 -0.0717,0.0957 -0.1674,0.26306 -0.31088,0.45437 -0.0718,0.11958 -0.16741,0.23915 -0.26306,0.38264 -0.0239,0.0239 -0.0239,0.0478 -0.0239,0.0478 -0.86092,1.24355 -2.60668,3.635 -5.1177,6.57648 -0.0239,0.0239 -0.0239,0.0478 -0.0478,0.0717 -3.61108,3.68284 -9.32665,9.5658 -9.68537,9.9006 -0.19131,0.1674 -0.38263,0.31089 -0.55003,0.47829 -0.5022,0.43047 -0.98049,0.83701 -1.4827,1.26747 -0.71743,0.57395 -1.43487,1.14789 -2.1523,1.72184 0.0957,0.21523 0.26306,0.47829 0.43046,0.76526 0.78918,1.3153 2.24797,3.32412 4.71115,5.83514 1.07615,1.07615 2.36754,2.24796 3.87415,3.51543 -6.09819,6.48083 -11.28764,13.82257 -14.77915,21.92958 -5.2372797,12.14856 -11.64634966,25.63633 -10.66585966,38.88496 -0.0239,1.29138 0,2.60668 0.14348,3.94589 0.0957,1.69793 0.33481,3.32411 0.69352,4.87856 0.35871996,0.64569 0.66960996,1.29138 0.76525996,1.4827 1.45879,0.74134 2.82192,1.91316 4.23287,2.77407 8.4896497,5.16553 10.1158297,4.83073 19.1555097,8.75271 0.52611,0.23914 1.02832,0.47829 1.53052,0.71743 11.93333,3.27629 21.85785,11.26372 26.13854,24.89498 2.34362,7.46132 2.12838,14.73133 0.11957,21.35564 1.05223,-0.23915 2.00881,-0.6457 2.86974,-1.19573 1.29138,-0.35871 2.63059,-0.62177 3.87414,-1.21963 1.74576,-0.78918 3.27629,-1.88925 4.73508,-3.1328 2.86973,-2.4632 4.97421,-5.50033 6.95911,-8.65705 1.19572,-1.84141 2.798,-3.15671 3.51543,-5.38076 0.74135,-2.24796 0.5022,-4.75898 0.40654,-7.07869 -0.16739,-4.20895 -1.0044,-8.89619 -2.72625,-12.77033 -0.81309,-1.79359 -1.67401,-3.75457 -2.65451,-5.47642 -0.95657,-1.69793 -2.39144,-2.91757 -3.70674,-4.32852 -2.55885,-2.72625 -5.57208,-4.6155 -8.53747,-6.79172 -3.53935,-2.58276 -6.93521,-4.87855 -10.71369,-7.03085 -2.98931,-1.72185 -5.64382,-4.9503 -7.96352,-7.67655 -0.8131,-1.86533 -1.84142,-3.58718 -2.67843,-5.50034 0.0239,-0.45437 0.0239,-0.90875 0.0478,-1.36312 0.43046,-5.97862 1.72184,-12.02899 3.94589,-17.62498 1.8175,-5.73947 5.14161,-10.85718 9.42231,-14.89872 1.07615,-0.98049 2.17622,-1.93707 3.34803,-2.77408 0.71743,-0.52612 1.41095,-1.00441 2.1523,-1.4827 1.02832,-0.6457 2.05665,-1.29138 3.18063,-1.86533 4.80681,-2.46319 9.78102,-3.82632 14.65958,-4.16112 6.36125,-0.43046 12.57902,0.90875 18.10326,4.04154 3.15671,1.76968 6.12211,4.13721 8.72879,7.07869 0.167403,0.0478 0.334803,0.11958 0.502213,0.19132 2.10447,4.23287 3.82631,8.7527 4.75898,14.06172 1.1479,6.55257 0.31089,13.34428 1.41095,19.63379 -0.19131,0.57395 -0.43046,1.17181 -0.6696,1.74576 0.62178,20.68603 13.98997,46.3941 31.51929,54.4772 11.83767,4.85464 26.99946,7.19826 39.17193,4.35244 6.48083,-1.86534 12.33987,-5.71557 17.48149,-10.2354 5.85905,-5.21337 16.52491,-18.29459 10.7376,-22.31222 -0.43046,-0.1674 -0.88483,-0.26306 -1.33921,-0.31089 -3.75457,1.67402 -8.08309,2.65451 -13.03339,2.65451 -1.72185,0 -3.34803,-0.16741 -4.92638,-0.38263 -0.6457,-0.0478 -1.26748,-0.0957 -1.91316,-0.21523 -1.84142,-0.26306 -3.63501,-0.78918 -5.35685,-1.50662 -1.07615,-0.5022 -2.08056,-1.05223 -3.03714,-1.69793 -13.3682,-7.46132 -18.05544,-24.72757 -14.08564,-39.10018 0.57395,-3.37195 1.55445,-6.57648 2.96541,-9.42231 1.93707,-3.41977 4.472,-5.59599 7.34174,-6.86345 4.7829,-3.85024 11.02458,-6.24169 18.70113,-6.31343 0.11957,0 0.21523,0 0.31089,0 1.8175,0 3.53934,0.14349 5.21336,0.40655 1.07615,-0.19132 2.20012,-0.31089 3.41977,-0.31089 2.79799,0 5.23727,0.52612 7.38957,1.45878 1.79359,0.74135 3.34803,1.76967 4.68725,2.98931 4.37634,2.29579 8.41789,5.1177 11.81375,9.06359 4.20895,4.87856 7.15043,10.33106 10.09191,16.04663 1.74576,3.39585 2.48711,6.95911 2.36753,10.42671 0.0957,0.26306 0.19132,0.52612 0.26307,0.78918 4.35244,13.24862 -2.20014,30.25182 -7.93961,42.35256 -2.24796,5.02204 -3.1328,7.72437 -0.95658,7.72437 6.36125,-1.21963 15.01829,-6.57648 21.52303,-9.94843 19.13159,-10.25931 34.36512,-24.03405 29.08002,-46.68107"
     id="path4690"
     style="stroke-width:6.12211" />
</svg>
